<?xml version="1.0" encoding="UTF-8" standalone="no"?>
<svg
   width="24"
   height="24"
   viewBox="0 0 24 24"
   focusable="false"
   aria-hidden="true"
   style="pointer-events: none; display: inherit; width: 100%; height: 100%;"
   version="1.1"
   id="svg2"
   sodipodi:docname="icon.svg"
   inkscape:version="1.4 (e7c3feb100, 2024-10-09)"
   xmlns:inkscape="http://www.inkscape.org/namespaces/inkscape"
   xmlns:sodipodi="http://sodipodi.sourceforge.net/DTD/sodipodi-0.dtd"
   xmlns="http://www.w3.org/2000/svg"
   xmlns:svg="http://www.w3.org/2000/svg">
  <defs
     id="defs2" />
  <sodipodi:namedview
     id="namedview2"
     pagecolor="#ffffff"
     bordercolor="#000000"
     borderopacity="0.25"
     inkscape:showpageshadow="2"
     inkscape:pageopacity="0.0"
     inkscape:pagecheckerboard="0"
     inkscape:deskcolor="#d1d1d1"
     inkscape:zoom="24.041667"
     inkscape:cx="12.228769"
     inkscape:cy="12.062392"
     inkscape:window-width="3440"
     inkscape:window-height="1372"
     inkscape:window-x="0"
     inkscape:window-y="0"
     inkscape:window-maximized="1"
     inkscape:current-layer="svg2" />
  <path
     d="m19.45,3.88c1.12,1.82.48,4.15-1.42,5.22l-1.32.74.94.41c1.36.58,2.27,1.85,2.35,3.27.08,1.43-.68,2.77-1.97,3.49l-8,4.47c-1.91,1.06-4.35.46-5.48-1.35-1.12-1.82-.48-4.15,1.42-5.22l1.33-.74-.94-.41c-1.36-.58-2.27-1.85-2.35-3.27-.08-1.43.68-2.77,1.97-3.49l8-4.47c1.91-1.06,4.35-.46,5.48,1.35Z"
     fill="#f03"
     id="path1" />
  <path
     d="m10,15l5-3-5-3v6Z"
     fill="#fff"
     id="path2"
     style="stroke-width:5;stroke-dasharray:none" />
  <circle
     style="fill:none;stroke:#000000;stroke-width:1.96202;stroke-dasharray:none;stroke-opacity:1"
     id="path3"
     cx="12.124784"
     cy="12.124783"
     r="10.355265" />
  <rect
     style="fill:#800000;stroke:#000000;stroke-width:1.5;stroke-dasharray:none;stroke-opacity:1"
     id="rect4"
     width="18.093588"
     height="0.7487002"
     x="-9.359354"
     y="16.725868"
     transform="matrix(-0.72288838,0.69096483,0.69096483,0.72288838,0,0)" />
</svg>
